<?xml version="1.0" standalone="no"?>
<!DOCTYPE svg PUBLIC "-//W3C//DTD SVG 20010904//EN"
 "http://www.w3.org/TR/2001/REC-SVG-20010904/DTD/svg10.dtd">
<svg version="1.0" xmlns="http://www.w3.org/2000/svg"
 width="700.000000pt" height="700.000000pt" viewBox="0 0 700.000000 700.000000"
 preserveAspectRatio="xMidYMid meet">
<metadata>
Created by potrace 1.11, written by Peter Selinger 2001-2013
</metadata>
<g transform="translate(0.000000,700.000000) scale(0.100000,-0.100000)"
fill="#000000" stroke="none">
<path d="M2893 6975 c-137 -69 -164 -239 -54 -346 60 -57 102 -69 255 -69
l116 0 0 -299 0 -299 -47 -6 c-398 -57 -787 -214 -1118 -451 l-78 -57 -213
213 -213 213 82 95 c122 143 143 196 116 294 -33 120 -191 188 -304 129 -36
-18 -689 -674 -780 -782 -125 -150 -6 -380 185 -357 68 8 93 23 196 120 l91
86 213 -214 213 -214 -40 -53 c-237 -310 -413 -738 -468 -1140 l-6 -48 -300 0
-299 0 0 116 c0 153 -12 195 -69 255 -107 110 -277 83 -346 -54 l-25 -51 0
-555 c0 -518 2 -559 19 -596 68 -148 254 -179 360 -59 49 56 61 103 61 248 l0
116 299 0 300 0 6 -47 c53 -385 211 -783 437 -1097 l70 -98 -212 -213 -213
-213 -101 85 c-55 47 -118 94 -141 104 -82 38 -169 19 -236 -51 -71 -72 -84
-161 -38 -250 22 -43 783 -802 824 -823 87 -42 174 -27 246 42 69 67 88 154
50 236 -10 23 -57 86 -104 141 l-85 101 213 213 213 212 98 -70 c305 -219 658
-364 1044 -428 47 -8 88 -14 93 -14 4 0 7 -135 7 -300 l0 -300 -116 0 c-153 0
-195 -12 -255 -69 -113 -110 -80 -285 66 -352 37 -17 78 -19 595 -19 517 0
558 2 595 19 146 67 179 242 66 352 -60 57 -102 69 -255 69 l-116 0 0 300 c0
165 3 300 8 300 4 0 45 6 92 14 386 64 739 209 1044 428 l98 70 213 -212 214
-213 -77 -88 c-42 -49 -89 -112 -104 -141 -48 -89 -33 -176 41 -249 74 -71
161 -84 251 -38 43 22 803 783 823 824 69 142 -37 315 -193 315 -65 0 -113
-26 -226 -123 l-101 -85 -213 213 -212 213 67 93 c177 246 305 521 381 814 27
106 64 293 64 328 0 4 135 7 300 7 l300 0 0 -116 c0 -145 12 -192 61 -248 106
-120 292 -89 360 59 17 37 19 78 19 596 l0 557 -28 53 c-67 129 -230 156 -338
57 -59 -54 -74 -107 -74 -260 l0 -118 -299 0 -300 0 -6 48 c-53 384 -211 782
-437 1096 l-70 98 213 214 213 213 95 -82 c53 -45 116 -92 140 -104 83 -43
172 -25 242 47 70 72 85 158 42 245 -21 42 -780 802 -823 824 -90 46 -177 33
-251 -38 -71 -70 -89 -159 -46 -242 12 -24 59 -87 104 -140 l82 -95 -213 -213
-213 -213 -78 57 c-331 237 -720 394 -1117 451 l-48 6 0 299 0 299 116 0 c145
0 192 12 249 62 114 101 90 284 -47 352 l-52 26 -556 0 -556 0 -51 -25z m326
-1242 c34 -47 61 -89 61 -92 -1 -3 -87 -54 -193 -112 l-192 -106 -100 -6
c-126 -7 -214 -29 -312 -78 -42 -21 -78 -37 -80 -36 -9 10 55 82 109 122 120
90 251 161 523 280 29 12 28 13 -20 8 -287 -25 -575 -170 -839 -424 -50 -48
-104 -105 -121 -128 -28 -38 -39 -43 -179 -91 -82 -27 -152 -48 -154 -45 -7 6
110 131 196 210 317 288 685 477 1102 566 138 29 130 31 199 -68z m1076 -23
c214 -75 492 -231 683 -385 379 -306 671 -758 791 -1228 34 -132 59 -272 66
-377 5 -75 5 -75 -10 -37 -56 145 -183 325 -256 362 -54 28 -65 21 -93 -57
-50 -142 -64 -217 -80 -442 l-12 -161 -41 43 c-26 28 -75 110 -135 225 -69
134 -106 195 -144 234 -48 51 -52 53 -105 53 -149 2 -379 20 -429 35 -30 9
-88 34 -128 56 -41 21 -76 39 -78 39 -10 0 29 -76 63 -122 37 -51 126 -128
146 -128 7 0 31 26 54 56 l42 55 20 -38 c15 -31 31 -43 75 -62 31 -12 56 -29
56 -36 0 -7 -18 -49 -40 -93 -51 -101 -134 -189 -252 -266 -76 -50 -198 -112
-202 -104 -78 181 -245 448 -342 546 -73 73 -88 78 -78 25 19 -105 95 -261
192 -397 71 -99 229 -266 251 -266 9 0 67 20 129 45 61 25 114 45 117 45 20 0
-26 -173 -71 -267 -27 -56 -59 -98 -138 -181 -157 -165 -181 -224 -195 -499
-8 -154 -12 -163 -110 -231 -70 -50 -99 -97 -108 -175 -8 -72 -22 -95 -101
-168 -83 -77 -202 -142 -308 -169 -135 -35 -166 -27 -250 62 -120 127 -254
377 -254 474 0 36 19 81 51 123 25 32 25 115 -1 183 -11 29 -48 88 -84 132
-71 88 -86 125 -86 218 0 85 -27 129 -87 142 -33 8 -46 17 -63 48 l-21 38
-217 0 c-190 0 -222 3 -258 19 -94 43 -200 203 -229 347 -29 140 8 344 83 460
44 67 91 112 212 204 47 35 120 99 164 142 l79 78 49 -30 50 -31 183 29 183
28 6 -39 c12 -75 69 -151 149 -201 41 -25 155 -67 160 -58 2 4 12 31 21 60 17
52 38 66 62 42 24 -24 173 -51 316 -57 l148 -6 0 39 c-1 117 -84 186 -253 210
-55 7 -65 21 -46 66 22 53 76 69 273 81 94 5 173 12 176 14 2 2 -2 16 -11 31
-31 56 -181 123 -311 138 l-58 7 0 -52 c0 -92 -32 -140 -108 -160 -51 -14 -72
-43 -81 -111 -6 -49 -6 -50 -28 -35 -11 8 -38 55 -58 105 -44 105 -89 161
-156 196 l-49 24 0 -25 c0 -42 37 -102 85 -137 24 -18 44 -35 45 -38 1 -12
-102 -130 -113 -130 -7 0 -23 9 -37 19 l-24 19 39 7 c50 9 75 22 75 38 -1 7
-47 61 -103 120 l-102 109 -63 -21 c-107 -36 -206 -111 -273 -207 l-28 -42
-93 20 c-51 11 -98 21 -105 23 -8 3 6 43 39 117 28 62 54 116 57 120 3 4 35 0
71 -7 36 -8 73 -14 83 -15 23 0 49 58 56 129 l6 53 71 18 c129 33 220 92 275
178 l27 43 12 -51 c12 -49 13 -50 49 -50 62 0 153 20 203 46 27 14 79 54 116
89 l67 64 -77 1 c-75 0 -78 1 -78 23 0 13 14 43 30 65 40 56 40 73 -2 61 -50
-14 -85 -56 -118 -143 -29 -75 -72 -146 -88 -146 -4 0 -18 25 -31 56 l-24 56
-64 -7 c-39 -4 -63 -3 -63 3 0 18 88 127 132 163 110 90 239 159 298 159 51
-1 117 -18 183 -47 l58 -26 -21 -22 c-11 -12 -24 -39 -27 -60 l-6 -39 75 65
c41 35 105 85 142 112 82 58 106 103 113 218 l6 79 76 0 76 1 -30 27 c-17 15
-48 41 -70 59 l-40 32 70 -19 c39 -10 111 -33 160 -50z m-1435 -371 c27 -6 50
-13 50 -15 0 -34 -56 -64 -117 -64 -37 0 -37 1 -12 68 10 25 11 26 79 11z m83
-470 l5 -36 -82 -12 c-44 -7 -89 -15 -100 -18 -11 -3 1 13 27 38 46 45 67 93
67 157 0 23 9 41 27 60 l28 27 12 -90 c6 -49 13 -106 16 -126z m-123 106 c0
-3 -9 -24 -20 -45 -20 -38 -24 -41 -92 -55 -44 -8 4 68 56 91 33 14 56 18 56
9z m-1620 -1446 c29 -174 102 -341 237 -541 l76 -112 -12 -220 c-14 -269 -21
-340 -31 -329 -5 4 -33 56 -63 115 -183 358 -270 754 -253 1158 9 222 19 267
27 119 4 -64 12 -149 19 -190z m3306 -1206 c-22 -188 -126 -365 -241 -409 -25
-9 -48 -14 -52 -11 -7 7 44 252 57 277 10 18 221 199 234 199 4 1 5 -25 2 -56z"/>
<path d="M4150 4633 c0 -3 16 -23 35 -46 45 -52 83 -133 91 -190 l6 -44 52 -7
c85 -10 96 -8 96 15 0 29 -44 117 -80 162 -42 50 -109 94 -159 106 -22 5 -41
7 -41 4z"/>
</g>
</svg>
