<?xml version="1.0" standalone="no"?>
<!DOCTYPE svg PUBLIC "-//W3C//DTD SVG 20010904//EN"
 "http://www.w3.org/TR/2001/REC-SVG-20010904/DTD/svg10.dtd">
<svg version="1.0" xmlns="http://www.w3.org/2000/svg"
 width="700.000000pt" height="700.000000pt" viewBox="0 0 700.000000 700.000000"
 preserveAspectRatio="xMidYMid meet">
<metadata>
Created by potrace 1.11, written by Peter Selinger 2001-2013
</metadata>
<g transform="translate(0.000000,700.000000) scale(0.100000,-0.100000)"
fill="#000000" stroke="none">
<path d="M2893 6975 c-137 -69 -164 -239 -54 -346 60 -57 102 -69 255 -69
l116 0 0 -299 0 -299 -47 -6 c-398 -57 -787 -214 -1118 -451 l-78 -57 -213
213 -213 213 82 95 c122 143 143 196 116 294 -33 120 -191 188 -304 129 -36
-18 -689 -674 -780 -782 -125 -150 -6 -380 185 -357 68 8 93 23 196 120 l91
86 213 -214 213 -214 -40 -53 c-237 -310 -413 -738 -468 -1140 l-6 -48 -300 0
-299 0 0 116 c0 153 -12 195 -69 255 -107 110 -277 83 -346 -54 l-25 -51 0
-555 c0 -518 2 -559 19 -596 68 -148 254 -179 360 -59 49 56 61 103 61 248 l0
116 299 0 300 0 6 -47 c53 -385 211 -783 437 -1097 l70 -98 -212 -213 -213
-213 -101 85 c-55 47 -118 94 -141 104 -82 38 -169 19 -236 -51 -71 -72 -84
-161 -38 -250 22 -43 783 -802 824 -823 87 -42 174 -27 246 42 69 67 88 154
50 236 -10 23 -57 86 -104 141 l-85 101 213 213 213 212 98 -70 c305 -219 658
-364 1044 -428 47 -8 88 -14 93 -14 4 0 7 -135 7 -300 l0 -300 -116 0 c-153 0
-195 -12 -255 -69 -113 -110 -80 -285 66 -352 37 -17 78 -19 595 -19 517 0
558 2 595 19 146 67 179 242 66 352 -60 57 -102 69 -255 69 l-116 0 0 300 c0
165 3 300 8 300 4 0 45 6 92 14 386 64 739 209 1044 428 l98 70 213 -212 214
-213 -77 -88 c-42 -49 -89 -112 -104 -141 -48 -89 -33 -176 41 -249 74 -71
161 -84 251 -38 43 22 803 783 823 824 69 142 -37 315 -193 315 -65 0 -113
-26 -226 -123 l-101 -85 -213 213 -212 213 67 93 c177 246 305 521 381 814 27
106 64 293 64 328 0 4 135 7 300 7 l300 0 0 -116 c0 -145 12 -192 61 -248 106
-120 292 -89 360 59 17 37 19 78 19 596 l0 557 -28 53 c-67 129 -230 156 -338
57 -59 -54 -74 -107 -74 -260 l0 -118 -299 0 -300 0 -6 48 c-53 384 -211 782
-437 1096 l-70 98 213 214 213 213 95 -82 c53 -45 116 -92 140 -104 83 -43
172 -25 242 47 70 72 85 158 42 245 -21 42 -780 802 -823 824 -90 46 -177 33
-251 -38 -71 -70 -89 -159 -46 -242 12 -24 59 -87 104 -140 l82 -95 -213 -213
-213 -213 -78 57 c-331 237 -720 394 -1117 451 l-48 6 0 299 0 299 116 0 c145
0 192 12 249 62 114 101 90 284 -47 352 l-52 26 -556 0 -556 0 -51 -25z m326
-1242 c33 -47 58 -90 56 -94 -3 -4 -89 -54 -193 -112 l-187 -104 -105 -6
c-126 -7 -199 -25 -305 -77 -44 -21 -81 -37 -83 -36 -1 2 11 20 26 42 54 74
258 203 466 295 189 84 180 78 116 73 -96 -9 -202 -35 -305 -75 -207 -80 -366
-189 -561 -385 l-140 -141 -139 -46 c-76 -26 -141 -45 -143 -42 -3 2 23 34 57
71 304 333 717 577 1152 683 233 56 215 59 288 -46z m1028 -8 c796 -261 1407
-964 1557 -1790 13 -71 27 -164 31 -205 l7 -75 -60 120 c-82 164 -192 285
-260 285 -21 0 -23 -2 -57 -102 -37 -106 -56 -216 -69 -401 l-12 -172 -40 42
c-25 26 -77 113 -135 224 -90 174 -146 255 -193 281 -13 8 -99 15 -226 19
-229 8 -269 16 -389 80 -40 22 -75 38 -77 36 -8 -7 48 -106 83 -147 39 -45
108 -100 127 -100 7 0 29 23 49 50 21 28 41 50 45 50 5 0 15 -15 24 -33 13
-26 29 -39 72 -57 31 -12 56 -28 56 -35 0 -7 -18 -49 -41 -94 -49 -99 -135
-189 -251 -265 -71 -46 -199 -112 -202 -104 -1 2 -29 59 -64 128 -80 160 -189
326 -272 412 -94 97 -106 92 -69 -28 49 -161 200 -394 351 -541 l73 -71 125
49 c69 27 126 49 128 49 17 0 -33 -181 -74 -267 -27 -56 -59 -98 -138 -181
-154 -162 -182 -231 -195 -489 -8 -165 -11 -171 -111 -243 -72 -51 -98 -93
-107 -171 -8 -74 -21 -96 -101 -170 -83 -77 -202 -142 -308 -169 -135 -35
-166 -27 -250 62 -118 125 -254 379 -254 475 0 26 11 56 36 96 35 56 36 63 32
126 -6 78 -28 126 -97 208 -71 86 -83 115 -91 220 -8 108 -27 139 -91 149 -29
5 -41 14 -58 45 l-22 39 -217 0 c-189 0 -222 3 -257 19 -80 37 -177 166 -216
291 -40 125 -21 340 41 466 42 85 94 140 239 253 69 54 152 126 184 160 l59
62 50 -31 51 -31 183 28 c179 28 184 28 184 10 0 -69 63 -164 143 -214 49 -31
165 -75 170 -65 2 4 12 31 21 60 10 28 20 52 23 52 3 0 37 -11 75 -25 77 -28
205 -45 341 -45 l87 0 0 38 c-1 50 -30 112 -69 145 -34 28 -102 51 -184 63
-26 3 -50 10 -53 15 -3 5 0 26 6 45 19 56 72 75 239 85 75 4 156 8 179 9 l44
0 -19 33 c-36 62 -179 128 -312 143 l-61 7 0 -52 c0 -93 -33 -140 -113 -162
-46 -12 -67 -43 -76 -109 -6 -49 -6 -50 -28 -35 -11 8 -38 57 -59 107 -43 103
-111 184 -173 206 l-34 12 6 -40 c6 -47 44 -102 93 -133 18 -12 34 -24 34 -27
0 -12 -103 -130 -114 -130 -6 0 -22 9 -36 19 l-24 19 39 7 c50 9 75 22 75 38
-1 7 -47 61 -103 120 l-102 109 -65 -22 c-36 -12 -81 -31 -100 -43 -48 -29
-137 -114 -170 -163 l-28 -40 -101 20 c-57 12 -101 26 -101 32 0 6 16 47 36
90 20 44 42 93 49 111 l13 31 74 -14 c40 -8 79 -14 86 -14 19 0 51 78 52 125
0 22 4 45 8 51 4 5 33 16 65 23 117 26 229 99 288 190 l15 24 14 -46 c13 -47
13 -47 56 -47 118 0 214 41 312 135 l67 64 -77 1 c-75 0 -78 1 -78 23 0 13 14
43 30 65 40 56 40 73 -2 61 -50 -14 -84 -55 -118 -143 -31 -76 -73 -146 -88
-146 -4 0 -18 26 -31 56 l-25 56 -63 -6 c-35 -4 -63 -3 -63 2 0 16 60 92 108
139 88 84 226 167 300 179 49 8 128 -9 204 -43 l59 -26 -21 -22 c-11 -12 -24
-39 -27 -60 l-6 -39 75 65 c41 35 104 85 141 111 85 60 108 103 115 215 l5 82
75 3 76 3 -63 53 c-34 28 -56 52 -47 52 9 0 78 -20 153 -45z m-1387 -386 c27
-6 50 -13 50 -15 0 -33 -59 -64 -123 -64 -30 0 -30 2 -6 68 10 25 11 26 79 11z
m82 -469 l3 -35 -65 -12 c-36 -7 -77 -12 -91 -13 l-27 0 38 38 c39 38 60 91
60 150 0 23 9 41 27 60 l28 27 12 -90 c6 -49 13 -106 15 -125z m-122 105 c0
-3 -9 -23 -20 -45 -17 -33 -27 -40 -62 -47 -50 -11 -58 -2 -31 36 26 35 113
78 113 56z m-1616 -1468 c33 -173 95 -312 228 -511 l80 -120 -12 -230 c-7
-127 -15 -253 -19 -281 l-6 -50 -47 85 c-128 236 -220 522 -259 810 -15 111
-18 468 -5 555 l10 60 7 -118 c4 -64 15 -155 23 -200z m3306 -1146 c0 -11 -7
-55 -15 -98 -29 -156 -132 -311 -231 -349 -25 -9 -47 -14 -50 -11 -6 6 44 252
56 276 8 16 221 200 233 200 4 1 7 -8 7 -18z"/>
<path d="M4150 4631 c0 -5 7 -15 17 -22 45 -38 103 -162 118 -256 0 -1 33 -5
73 -8 72 -8 72 -7 72 17 0 66 -104 207 -181 244 -53 26 -99 38 -99 25z"/>
</g>
</svg>
