<?xml version="1.0" encoding="UTF-8" standalone="no"?>
<!-- Created with Inkscape (http://www.inkscape.org/) -->

<svg
   xmlns:dc="http://purl.org/dc/elements/1.1/"
   xmlns:cc="http://creativecommons.org/ns#"
   xmlns:rdf="http://www.w3.org/1999/02/22-rdf-syntax-ns#"
   xmlns:svg="http://www.w3.org/2000/svg"
   xmlns="http://www.w3.org/2000/svg"
   xmlns:sodipodi="http://sodipodi.sourceforge.net/DTD/sodipodi-0.dtd"
   xmlns:inkscape="http://www.inkscape.org/namespaces/inkscape"
   width="281.819mm"
   height="281.81906mm"
   viewBox="0 0 281.819 281.81906"
   version="1.1"
   id="svg8"
   inkscape:version="0.92.4 (5da689c313, 2019-01-14)"
   sodipodi:docname="corona-atlas-icon.svg">
  <defs
     id="defs2">
    <radialGradient
       id="sea">
      <stop
         id="stop3412"
         offset=".5"
         stop-color="#1c546f" />
      <stop
         id="stop3414"
         offset="1"
         stop-color="#123a51" />
    </radialGradient>
    <radialGradient
       r="1036"
       cx="330"
       cy="-68"
       gradientUnits="userSpaceOnUse"
       id="land">
      <stop
         id="stop3417"
         offset=".13"
         stop-color="#eaeaec" />
      <stop
         id="stop3419"
         offset=".18"
         stop-color="#777c41" />
      <stop
         id="stop3421"
         offset=".27"
         stop-color="#9a8d5a" />
      <stop
         id="stop3423"
         offset=".37"
         stop-color="#d1b387" />
      <stop
         id="stop3425"
         offset=".4"
         stop-color="#d3b58d" />
      <stop
         id="stop3427"
         offset=".42"
         stop-color="#d1b287" />
      <stop
         id="stop3429"
         offset=".51"
         stop-color="#b68d64" />
      <stop
         id="stop3431"
         offset=".59"
         stop-color="#968655" />
    </radialGradient>
    <style
       id="style849">.a{fill:#418fde;}</style>
  </defs>
  <sodipodi:namedview
     id="base"
     pagecolor="#ffffff"
     bordercolor="#666666"
     borderopacity="1.0"
     inkscape:pageopacity="0.0"
     inkscape:pageshadow="2"
     inkscape:zoom="0.35"
     inkscape:cx="859.3023"
     inkscape:cy="476.16153"
     inkscape:document-units="mm"
     inkscape:current-layer="layer1"
     showgrid="false"
     fit-margin-top="0"
     fit-margin-left="0"
     fit-margin-right="0"
     fit-margin-bottom="0"
     inkscape:window-width="1920"
     inkscape:window-height="1001"
     inkscape:window-x="-9"
     inkscape:window-y="-9"
     inkscape:window-maximized="1" />
  <metadata
     id="metadata5">
    <rdf:RDF>
      <cc:Work
         rdf:about="">
        <dc:format>image/svg+xml</dc:format>
        <dc:type
           rdf:resource="http://purl.org/dc/dcmitype/StillImage" />
        <dc:title></dc:title>
      </cc:Work>
    </rdf:RDF>
  </metadata>
  <g
     inkscape:label="Layer 1"
     inkscape:groupmode="layer"
     id="layer1"
     transform="translate(51.81388,12.587684)">
    <g
       id="g943">
      <path
         sodipodi:nodetypes="cccccccsccsccccccsccsccccccsccscccccsssssscccccsccsccccccsccsccccccsccsccccccsccc"
         style="fill:#418fde;stroke-width:5.87122965"
         inkscape:connector-curvature="0"
         class="a"
         d="m 221.19839,98.965682 c -4.86424,-8.09e-4 -8.8077,3.942608 -8.80696,8.806848 v 8.80685 h -24.23488 c -2.144,-18.26028 -9.31933,-35.565773 -20.72546,-49.98572 l 17.15102,-17.15215 6.90368,5.845437 c 3.43659,3.452903 9.02362,3.45967 12.46856,0.01511 3.44495,-3.444559 3.4388,-9.03159 -0.0137,-12.468561 L 174.58508,13.477338 c -3.43893,-3.439253 -9.01479,-3.439507 -12.45404,-5.76e-4 -3.43926,3.438931 -3.43952,9.014795 -5.9e-4,12.454049 l 5.84586,6.90328 -17.15235,17.152084 C 136.40352,38.581051 119.09816,31.406239 100.83813,29.262023 V 5.026006 h 8.80696 c 4.86326,-8.97e-4 8.80522,-3.943593 8.80522,-8.806845 0,-4.863251 -3.94196,-8.805947 -8.80522,-8.806845 H 68.54634 c -4.86326,8.98e-4 -8.80522,3.943594 -8.80522,8.806845 0,4.863252 3.94196,8.805948 8.80522,8.806845 h 8.80695 V 29.262023 C 59.09327,31.406239 41.78792,38.58105 27.36747,49.986175 L 10.21534,32.834091 16.06098,25.930811 C 19.4872,22.489448 19.48096,16.924029 16.04708,13.490359 12.61316,10.056688 7.04774,10.05086 3.60663,13.477339 l -28.67947,29.356158 c -3.42642,3.441451 -3.42017,9.007135 0.014,12.440885 3.43414,3.433751 8.99982,3.439376 12.44089,0.01257 l 6.22731,-5.845437 17.15124,17.15215 C -0.6456,81.013588 -7.82102,98.319083 -9.96508,116.57939 h -24.2351 v -8.80686 c 0,-4.86389 -3.94296,-8.806844 -8.80685,-8.806844 -4.86389,0 -8.80685,3.942954 -8.80685,8.806844 v 41.09861 c 0,4.86389 3.94296,8.80685 8.80685,8.80685 4.86389,0 8.80685,-3.94296 8.80685,-8.80685 v -8.80685 h 24.2351 c 2.144,18.26028 9.31933,35.56577 20.72546,49.98572 l -17.15102,17.15217 -6.90345,-5.84546 c -3.44068,-3.42912 -9.00825,-3.42459 -12.44335,0.0101 -3.43509,3.43472 -3.44024,9.00229 -0.0115,12.44335 l 29.35556,29.35617 c 3.43676,3.45183 9.02292,3.45804 12.46734,0.0139 3.44443,-3.44417 3.43864,-9.03033 -0.0129,-12.46734 l -5.84564,-6.90328 17.15147,-17.1521 c 14.42062,11.40526 31.72623,18.58008 49.98648,20.72417 v 24.23601 h -8.80695 c -4.86316,10e-4 -8.80496,3.94369 -8.80496,8.80685 0,4.86315 3.9418,8.8058 8.80496,8.80684 h 41.09875 c 4.86316,-10e-4 8.80497,-3.94369 8.80497,-8.80684 0,-4.86316 -3.94181,-8.80581 -8.80497,-8.80685 h -8.80696 v -24.23601 c 18.26026,-2.14409 35.56587,-9.31891 49.98649,-20.72417 l 17.15147,17.1521 -5.84586,6.90328 c -3.4368,3.43962 -3.43552,9.01373 0.003,12.45178 3.43837,3.43805 9.01248,3.43882 12.45179,0.002 l 29.35551,-29.35649 c 3.44915,-3.43756 3.45368,-9.02183 0.0101,-12.46499 -3.44354,-3.44316 -9.02781,-3.438 -12.46498,0.0115 l -6.90345,5.84546 -17.15124,-17.15217 c 11.4062,-14.4199 18.58161,-31.7254 20.72567,-49.9857 h 24.23488 v 8.80685 c 10e-4,4.86316 3.9437,8.80496 8.80685,8.80496 4.86315,0 8.80581,-3.9418 8.80684,-8.80496 v -41.09861 c 7.5e-4,-4.86415 -3.94258,-8.80753 -8.80673,-8.806848 z"
         id="path853" />
      <path
         style="fill:#ffffff;stroke-width:0.25563124"
         id="path3435-9"
         d="m -5.4879458,128.32185 c 0,17.63856 4.85699464,33.99896 13.2928254,48.05868 L 9.0830363,153.37372 C -1.6534769,138.29147 -4.2097892,131.90069 -4.4654201,114.0065 c -0.7668938,4.60136 -1.0225257,9.45836 -1.0225257,14.31535 z M 16.751974,67.481612 29.533538,63.135881 C 37.969372,52.143736 54.841036,39.106542 71.968327,39.106542 65.321911,41.151592 46.149566,50.354318 44.615779,56.233837 51.773461,51.632474 57.652973,50.865581 64.810655,50.865581 L 80.404159,42.174118 75.291531,34.760811 C 51.773461,38.084017 31.322956,50.098687 16.751974,67.481612 Z m 12.525932,61.095868 c 0,5.62389 5.623891,17.38293 12.270298,17.38293 h 16.360407 l 2.045044,3.32321 c 5.112628,0 5.112628,3.57883 5.112628,8.18019 0,6.13515 7.668938,7.15768 7.668938,16.87167 0,2.55631 -3.067575,3.57884 -3.067575,7.66893 0,3.57884 9.458354,21.9843 15.337876,21.9843 10.225247,0 21.473028,-9.20273 21.473028,-13.29283 0,-9.71399 8.69146,-7.15768 8.69146,-13.80409 0,-30.16449 12.2703,-15.84914 16.87166,-41.92353 l -10.48087,4.0901 c -11.24778,-9.45835 -17.8942,-23.26244 -17.8942,-28.37506 3.32321,0 13.54846,15.33787 17.1273,24.54059 8.69146,-3.57883 17.63856,-9.96961 19.93924,-19.17234 l -4.60136,-2.04505 -1.53379,-3.06757 -3.57884,4.60136 c -1.27816,0 -7.15767,-4.34573 -8.9471,-10.48088 8.18021,5.36825 12.01467,5.36825 26.33002,5.36825 6.64642,0 10.48088,19.17235 16.87166,22.49555 0,-10.48088 0.7669,-18.91671 4.60137,-27.35254 3.57884,0 9.45836,5.87952 13.54846,17.38293 C 181.12287,81.03007 151.46964,46.264218 111.8468,36.55023 l 5.87953,4.856994 h -6.39079 c 0,13.548457 -4.0901,8.947094 -13.292824,19.172344 0,-2.556312 0,-3.578837 2.045054,-4.856994 -3.834469,-2.300681 -7.41331,-3.067575 -9.96962,-3.067575 -3.834469,0 -14.315354,6.646413 -17.382929,13.292826 l 5.368257,-0.511262 2.045053,4.601362 c 4.601363,-2.811944 3.067575,-12.014669 9.969619,-12.014669 0,2.04505 -2.811947,2.811944 -2.811947,6.390781 l 6.390779,-0.255631 c -5.879513,6.646412 -8.947088,8.1802 -16.871664,8.1802 l -1.27815,-4.0901 c -2.300681,5.879519 -9.202725,8.947095 -14.826619,9.458356 0,3.067576 -0.255629,4.856995 -2.045044,7.668938 l -6.646416,-1.278155 -4.345735,9.713987 8.435832,1.789419 c 3.834469,-6.13515 8.435831,-9.458357 14.82662,-10.736512 L 79.126,93.811632 c 0,1.022525 -1.533788,1.789419 -5.112619,1.789419 l 3.067575,2.04505 4.601363,-5.623887 c -4.090107,-2.300682 -5.623895,-4.856994 -5.623895,-7.924569 9.713992,2.811943 7.41331,12.781562 11.759045,13.548456 0,-11.503407 7.924566,-1.022525 7.924566,-14.826613 5.623885,0 15.337875,3.323206 15.337875,7.413307 -14.570981,0 -18.661078,0.511262 -18.661078,5.112625 0,2.300681 12.525928,-1.278157 12.525928,10.73651 -10.225247,0 -14.82661,0 -20.450504,-3.06757 l -1.789416,5.11262 C 76.56969,106.33756 70.178912,103.01436 70.178912,95.856683 l -14.82662,2.300681 -4.090097,-2.556313 C 41.036948,108.38261 29.277906,106.84883 29.277906,128.57748 Z m 27.096917,-55.47198 3.834469,-0.766894 1.789416,-3.578837 c -3.578841,0 -5.368257,2.300681 -5.623885,4.345731 z m 2.300682,2.811944 8.180194,-1.278157 -1.27815,-9.969618 c -4.857,2.556312 0.766894,6.390781 -6.902044,11.247775 z m 0.511256,-18.405451 c 3.323213,0 6.13515,-0.511262 6.13515,-2.811943 L 60.46492,53.677524 Z m 55.727619,25.051864 c 6.90204,0 11.75903,8.435832 11.75903,12.014669 l -6.13515,-0.511263 c 0,-4.0901 -2.30068,-8.435831 -5.62388,-11.503406 z m 2.55631,110.177073 c 6.13515,0 12.2703,-9.45836 12.2703,-19.6836 l -9.71398,8.18019 z"
         inkscape:connector-curvature="0" />
    </g>
  </g>
</svg>
